<?xml version="1.0" encoding="utf-8"?>
<svg id="svg2" xmlns="http://www.w3.org/2000/svg" viewBox="0 0 500 670" xmlns:bx="https://boxy-svg.com">
  <desc>Source: openclipart.org/detail/209545</desc>
  <defs>
    <style bx:fonts="ADLaM Display">@import url(https://fonts.googleapis.com/css2?family=ADLaM+Display%3Aital%2Cwght%400%2C400&amp;display=swap);</style>
    <path id="path-0" style="fill: none;" d="M 164.636 498.52 C 164.636 518.001 167.499 528.809 167.499 538.605 C 168.93 547.069 176.174 557.974 180.383 560.079 C 189.035 567.299 202.028 570.1 211.879 570.1 C 220.041 572.75 227.415 571.532 233.353 571.532 C 240.911 571.532 256.156 571.635 260.554 567.237 C 265.195 565.805 272.007 554.854 272.007 552.921 C 272.007 550.613 278.026 539.744 279.165 538.605 C 280.596 532.872 289.186 528.031 289.186 524.289 C 290.726 522.857 296.979 512.836 299.207 512.836 C 300.639 510.426 306.032 501.383 306.365 501.383 L 307.797 499.951 C 307.797 495.834 310.66 495.973 310.66 491.362"/>
    <path id="path-1" style="fill: none;" d="M 131.708 578.689 C 136.003 585.728 139.642 597.3 140.298 597.3 C 144.145 598.732 146.024 604.905 146.024 608.753 C 148.956 610.184 152.268 618.774 154.614 618.774 C 156.046 620.843 165.013 624.501 167.498 624.501 C 173.877 629.447 182.007 630.227 188.973 630.227 C 193.046 631.659 204.302 634.104 206.152 635.953 C 211.935 635.953 219.915 637.385 221.9 637.385 C 228.581 637.385 233.83 637.385 239.079 637.385 C 245.76 637.385 251.009 637.385 256.258 637.385 C 263.907 637.385 268.744 635.953 273.438 635.953 C 278.019 635.953 285.539 631.659 286.322 631.659 C 292.067 631.659 297.523 625.932 299.207 625.932 C 302.319 625.932 310.66 619.443 310.66 618.774 C 315.607 617.343 316.341 610.184 322.112 610.184 C 327.076 608.753 330.952 600.163 333.565 600.163 C 338.465 596.695 343.587 596.621 343.587 590.142 C 345.018 588.829 348.658 577.257 349.313 577.257 C 351.6 575.826 350.669 564.373 356.471 564.373"/>
  </defs>
  <path id="path222" style="fill: rgb(255, 255, 255);" d="M 96.878 426.786 C 107.111 427.17 114.523 430.224 119.203 435.826 C 123.89 440.512 124.836 445.341 122.023 450.497 C 119.203 454.714 113.665 456.83 105.235 456.83 C 97.283 456.354 90.329 454.254 84.236 450.497 C 78.706 446.769 77.519 441.847 80.814 435.826 C 84.472 429.734 89.869 426.786 96.878 426.786 Z"/>
  <g id="svg-1" transform="matrix(1.390268, 0, 0, 1.476785, -296.250977, 142.492401)" style="">
    <desc>Source: openclipart.org/detail/209545</desc>
    <text style="fill: rgb(51, 51, 51); font-family: Arial, sans-serif; font-size: 500px; font-weight: 700; letter-spacing: -1.6px; text-transform: uppercase; word-spacing: -4px; white-space: pre; stroke-width: 1;" y="-475.14" x="155.253"><tspan style="baseline-shift: sub; font-size: 500px; word-spacing: -4px; letter-spacing: -1.6px; stroke-width: 1;" x="212.518" y="78.739">A</tspan></text>
    <text style="fill: rgb(51, 51, 51); font-family: &quot;ADLaM Display&quot;; font-size: 28px; font-weight: 700; white-space: pre;" transform="matrix(2.758018, 0, 0, 2.456485, -318.224854, -503.214386)" x="270.575" y="203.448">365</text>
    <text style="fill: rgb(51, 51, 51); font-family: Arial, sans-serif; font-size: 28px; white-space: pre;" transform="matrix(1, 0, 0, 1, 155.252823, -220.308685)"><textPath href="#path-0"> </textPath></text>
    <text style="fill: rgb(51, 51, 51); font-family: Arial, sans-serif; font-size: 28px; white-space: pre;" transform="matrix(1, 0, 0, 1, 155.252823, -220.308685)"><textPath href="#path-1"> </textPath></text>
    <text style="fill: rgb(51, 51, 51); font-family: Arial, sans-serif; font-size: 28px; font-weight: 700; text-transform: capitalize; white-space: pre; text-decoration: underline solid color(srgb 1 1 1 / 0.9);" transform="matrix(2.143632, 0, 0, 2.367591, 23.033232, -1002.877258)" x="133.139" y="568.664">Nobik</text>
  </g>
</svg>